# 3ds Max Wavefront OBJ Exporter v0.97b - (c)2007 guruware
# File Created: 30.07.2018 13:47:36

mtllib rubic_cubic.mtl

#
# object cubic
#

v  -26.9500 0.8000 -27.7500
v  -26.9500 54.7000 -27.7500
v  26.9500 54.7000 -27.7500
v  26.9500 0.8000 -27.7500
v  -26.9500 0.8000 27.7500
v  26.9500 0.8000 27.7500
v  26.9500 54.7000 27.7500
v  -26.9500 54.7000 27.7500
v  -26.9500 0.0000 -26.9500
v  26.9500 0.0000 -26.9500
v  26.9500 -0.0000 26.9500
v  -26.9500 -0.0000 26.9500
v  27.7500 0.8000 -26.9500
v  27.7500 54.7000 -26.9500
v  27.7500 54.7000 26.9500
v  27.7500 0.8000 26.9500
v  26.9500 55.5000 -26.9500
v  -26.9500 55.5000 -26.9500
v  -26.9500 55.5000 26.9500
v  26.9500 55.5000 26.9500
v  -27.7500 54.7000 -26.9500
v  -27.7500 0.8000 -26.9500
v  -27.7500 0.8000 26.9500
v  -27.7500 54.7000 26.9500
# 24 vertices

vn -0.3416 -0.3416 -0.8756
vn -0.3416 0.3416 -0.8756
vn 0.3416 0.3416 -0.8756
vn 0.3416 -0.3416 -0.8756
vn -0.3416 -0.3416 0.8756
vn 0.3416 -0.3416 0.8756
vn 0.3416 0.3416 0.8756
vn -0.3416 0.3416 0.8756
vn -0.3416 -0.8756 -0.3416
vn 0.3416 -0.8756 -0.3416
vn 0.3416 -0.8756 0.3416
vn -0.3416 -0.8756 0.3416
vn 0.8756 -0.3416 -0.3416
vn 0.8756 0.3416 -0.3416
vn 0.8756 0.3416 0.3416
vn 0.8756 -0.3416 0.3416
vn 0.3416 0.8756 -0.3416
vn -0.3416 0.8756 -0.3416
vn -0.3416 0.8756 0.3416
vn 0.3416 0.8756 0.3416
vn -0.8756 0.3416 -0.3416
vn -0.8756 -0.3416 -0.3416
vn -0.8756 -0.3416 0.3416
vn -0.8756 0.3416 0.3416
# 24 vertex normals

vt 0.4969 0.0068 0.0000
vt 0.4971 0.2513 0.0000
vt 0.2517 0.2513 0.0000
vt 0.2520 0.0068 0.0000
vt 0.4964 0.7478 0.0000
vt 0.2524 0.7478 0.0000
vt 0.2518 0.5032 0.0000
vt 0.4970 0.5032 0.0000
vt 0.4970 0.9980 0.0000
vt 0.2517 0.9980 0.0000
vt 0.2509 0.7526 0.0000
vt 0.4979 0.7526 0.0000
vt 0.0037 0.7479 0.0000
vt 0.0020 0.5028 0.0000
vt 0.2471 0.5013 0.0000
vt 0.2485 0.7475 0.0000
vt 0.2517 0.2552 0.0000
vt 0.4971 0.2553 0.0000
vt 0.4970 0.4993 0.0000
vt 0.2518 0.4993 0.0000
vt 0.7468 0.5029 0.0000
vt 0.7451 0.7479 0.0000
vt 0.5003 0.7476 0.0000
vt 0.5017 0.5013 0.0000
vt 0.4976 0.0020 0.0000
vt 0.5017 0.0063 0.0000
vt 0.2471 0.0063 0.0000
vt 0.2513 0.0020 0.0000
vt 0.5020 0.2534 0.0000
vt 0.2469 0.2534 0.0000
vt 0.7447 0.7528 0.0000
vt 0.0041 0.7528 0.0000
# 32 texture coords

g cubic
usemtl cubic_mat
s off
f 1/1/1 2/2/2 3/3/3 4/4/4 
f 5/5/5 6/6/6 7/7/7 8/8/8 
f 9/9/9 10/10/10 11/11/11 12/12/12 
f 13/13/13 14/14/14 15/15/15 16/16/16 
f 17/17/17 18/18/18 19/19/19 20/20/20 
f 21/21/21 22/22/22 23/23/23 24/24/24 
f 9/25/9 22/26/22 1/1/1 
f 4/4/4 13/27/13 10/28/10 
f 21/29/21 18/18/18 2/2/2 
f 3/3/3 17/17/17 14/30/14 
f 12/12/12 5/5/5 23/23/23 
f 16/16/16 6/6/6 11/11/11 
f 24/24/24 8/8/8 19/19/19 
f 20/20/20 7/7/7 15/15/15 
f 1/1/1 22/26/22 21/29/21 2/2/2 
f 4/4/4 10/28/10 9/25/9 1/1/1 
f 3/3/3 14/30/14 13/27/13 4/4/4 
f 2/2/2 18/18/18 17/17/17 3/3/3 
f 5/5/5 12/12/12 11/11/11 6/6/6 
f 8/8/8 24/24/24 23/23/23 5/5/5 
f 6/6/6 16/16/16 15/15/15 7/7/7 
f 7/7/7 20/20/20 19/19/19 8/8/8 
f 12/12/12 23/23/23 22/22/22 9/31/9 
f 10/32/10 13/13/13 16/16/16 11/11/11 
f 14/30/14 17/17/17 20/20/20 15/15/15 
f 18/18/18 21/29/21 24/24/24 19/19/19 
# 18 polygons - 8 triangles

